<mxfile host="app.diagrams.net" modified="2023-10-02T02:32:10.483Z" agent="Mozilla/5.0 (Windows NT 10.0; Win64; x64) AppleWebKit/537.36 (KHTML, like Gecko) Chrome/117.0.0.0 Safari/537.36" etag="-rQ2pgrytMLjh4gvWoLb" version="22.0.0" type="device">
  <diagram name="Página-1" id="Zt2VKIQ7Yjb1njPvfvgh">
    <mxGraphModel dx="1001" dy="784" grid="1" gridSize="10" guides="1" tooltips="1" connect="1" arrows="1" fold="1" page="1" pageScale="1" pageWidth="827" pageHeight="1169" math="0" shadow="0">
      <root>
        <mxCell id="0" />
        <mxCell id="1" parent="0" />
        <mxCell id="bIjzP23c8KdNtTvJajOV-10" style="edgeStyle=orthogonalEdgeStyle;rounded=0;orthogonalLoop=1;jettySize=auto;html=1;" parent="1" source="bIjzP23c8KdNtTvJajOV-6" target="bIjzP23c8KdNtTvJajOV-1" edge="1">
          <mxGeometry relative="1" as="geometry" />
        </mxCell>
        <mxCell id="bIjzP23c8KdNtTvJajOV-14" style="edgeStyle=orthogonalEdgeStyle;rounded=0;orthogonalLoop=1;jettySize=auto;html=1;" parent="1" source="bIjzP23c8KdNtTvJajOV-6" target="bIjzP23c8KdNtTvJajOV-12" edge="1">
          <mxGeometry relative="1" as="geometry" />
        </mxCell>
        <mxCell id="bIjzP23c8KdNtTvJajOV-6" value="API (Spring Java) com modelo IA" style="rounded=0;whiteSpace=wrap;html=1;" parent="1" vertex="1">
          <mxGeometry x="354" y="325" width="120" height="60" as="geometry" />
        </mxCell>
        <mxCell id="bIjzP23c8KdNtTvJajOV-11" style="edgeStyle=orthogonalEdgeStyle;rounded=0;orthogonalLoop=1;jettySize=auto;html=1;" parent="1" source="bIjzP23c8KdNtTvJajOV-1" target="bIjzP23c8KdNtTvJajOV-6" edge="1">
          <mxGeometry relative="1" as="geometry" />
        </mxCell>
        <mxCell id="bIjzP23c8KdNtTvJajOV-1" value="Aplicativo Chatbot (Flutter) Fixmate" style="rounded=0;whiteSpace=wrap;html=1;" parent="1" vertex="1">
          <mxGeometry x="354" y="150" width="120" height="60" as="geometry" />
        </mxCell>
        <mxCell id="bIjzP23c8KdNtTvJajOV-2" value="" style="aspect=fixed;perimeter=ellipsePerimeter;html=1;align=center;shadow=0;dashed=0;spacingTop=3;image;image=img/lib/active_directory/home_page.svg;" parent="1" vertex="1">
          <mxGeometry x="323" y="120" width="50" height="45" as="geometry" />
        </mxCell>
        <mxCell id="bIjzP23c8KdNtTvJajOV-3" value="" style="aspect=fixed;perimeter=ellipsePerimeter;html=1;align=center;shadow=0;dashed=0;spacingTop=3;image;image=img/lib/active_directory/mainframe_host.svg;" parent="1" vertex="1">
          <mxGeometry x="330" y="300" width="36" height="50" as="geometry" />
        </mxCell>
        <mxCell id="bIjzP23c8KdNtTvJajOV-9" style="edgeStyle=orthogonalEdgeStyle;rounded=0;orthogonalLoop=1;jettySize=auto;html=1;entryX=1;entryY=0.5;entryDx=0;entryDy=0;" parent="1" source="bIjzP23c8KdNtTvJajOV-8" target="bIjzP23c8KdNtTvJajOV-6" edge="1">
          <mxGeometry relative="1" as="geometry" />
        </mxCell>
        <mxCell id="bIjzP23c8KdNtTvJajOV-8" value="GPT provendo o modelo a ser utilizado" style="rounded=0;whiteSpace=wrap;html=1;" parent="1" vertex="1">
          <mxGeometry x="570" y="317.5" width="130" height="75" as="geometry" />
        </mxCell>
        <mxCell id="bIjzP23c8KdNtTvJajOV-15" style="edgeStyle=orthogonalEdgeStyle;rounded=0;orthogonalLoop=1;jettySize=auto;html=1;entryX=0.5;entryY=1;entryDx=0;entryDy=0;" parent="1" source="bIjzP23c8KdNtTvJajOV-12" target="bIjzP23c8KdNtTvJajOV-6" edge="1">
          <mxGeometry relative="1" as="geometry" />
        </mxCell>
        <mxCell id="bIjzP23c8KdNtTvJajOV-12" value="Banco de dados NoSQL Firestore" style="rounded=0;whiteSpace=wrap;html=1;" parent="1" vertex="1">
          <mxGeometry x="354" y="490" width="120" height="60" as="geometry" />
        </mxCell>
        <mxCell id="bIjzP23c8KdNtTvJajOV-4" value="" style="aspect=fixed;perimeter=ellipsePerimeter;html=1;align=center;shadow=0;dashed=0;spacingTop=3;image;image=img/lib/active_directory/databases.svg;" parent="1" vertex="1">
          <mxGeometry x="316" y="460" width="50" height="49" as="geometry" />
        </mxCell>
        <mxCell id="bIjzP23c8KdNtTvJajOV-17" style="edgeStyle=orthogonalEdgeStyle;rounded=0;orthogonalLoop=1;jettySize=auto;html=1;" parent="1" source="bIjzP23c8KdNtTvJajOV-16" target="bIjzP23c8KdNtTvJajOV-6" edge="1">
          <mxGeometry relative="1" as="geometry" />
        </mxCell>
        <mxCell id="bIjzP23c8KdNtTvJajOV-16" value="APIs Ford/Non-Ford para obter informações que treinarão o modelo" style="rounded=0;whiteSpace=wrap;html=1;" parent="1" vertex="1">
          <mxGeometry x="120" y="317.5" width="140" height="75" as="geometry" />
        </mxCell>
        <mxCell id="bIjzP23c8KdNtTvJajOV-18" value="" style="aspect=fixed;perimeter=ellipsePerimeter;html=1;align=center;shadow=0;dashed=0;spacingTop=3;image;image=img/lib/active_directory/mainframe_host.svg;" parent="1" vertex="1">
          <mxGeometry x="90" y="270" width="36" height="50" as="geometry" />
        </mxCell>
        <mxCell id="bIjzP23c8KdNtTvJajOV-19" value="" style="aspect=fixed;perimeter=ellipsePerimeter;html=1;align=center;shadow=0;dashed=0;spacingTop=3;image;image=img/lib/active_directory/mainframe_host.svg;" parent="1" vertex="1">
          <mxGeometry x="80" y="285" width="36" height="50" as="geometry" />
        </mxCell>
        <mxCell id="bIjzP23c8KdNtTvJajOV-20" value="" style="aspect=fixed;perimeter=ellipsePerimeter;html=1;align=center;shadow=0;dashed=0;spacingTop=3;image;image=img/lib/active_directory/mainframe_host.svg;" parent="1" vertex="1">
          <mxGeometry x="110" y="285" width="36" height="50" as="geometry" />
        </mxCell>
        <mxCell id="bIjzP23c8KdNtTvJajOV-21" value="" style="shape=image;html=1;verticalLabelPosition=bottom;verticalAlign=top;imageAspect=1;aspect=fixed;image=img/clipart/Gear_128x128.png" parent="1" vertex="1">
          <mxGeometry x="560" y="284.5" width="43.05" height="50.5" as="geometry" />
        </mxCell>
      </root>
    </mxGraphModel>
  </diagram>
</mxfile>
